<mxfile host="app.diagrams.net" modified="2024-06-24T07:40:49.150Z" agent="Mozilla/5.0 (Windows NT 10.0; Win64; x64) AppleWebKit/537.36 (KHTML, like Gecko) Chrome/126.0.0.0 Safari/537.36" version="24.6.2" etag="lInHodyeRbwQLuZ-P6TO" type="github">
  <diagram name="第 1 页" id="nzjl2AVr8xRaKWPKV9tn">
    <mxGraphModel>
      <root>
        <mxCell id="0" />
        <mxCell id="1" parent="0" />
      </root>
    </mxGraphModel>
  </diagram>
</mxfile>
